<svg width="75" height="75" viewBox="0 0 75 75" fill="none" xmlns="http://www.w3.org/2000/svg">
<path d="M57.5486 8.68138C43.1381 8.68138 33.2423 1.2168 26.2986 1.2168C19.3548 1.2168 4.77148 5.20846 4.77148 37.1522C4.77148 69.096 24.3902 73.7835 32.0277 73.7835C67.7923 73.7855 83.0694 8.68138 57.5486 8.68138Z" fill="#F3F3F1"/>
<path d="M64.6523 16.6667C62.9294 16.6667 61.5273 15.2646 61.5273 13.5417C61.5273 11.8188 62.9294 10.4167 64.6523 10.4167C66.3753 10.4167 67.7773 11.8188 67.7773 13.5417C67.7773 15.2646 66.3753 16.6667 64.6523 16.6667ZM64.6523 12.5C64.0794 12.5 63.6107 12.9667 63.6107 13.5417C63.6107 14.1167 64.0794 14.5834 64.6523 14.5834C65.2253 14.5834 65.694 14.1167 65.694 13.5417C65.694 12.9667 65.2273 12.5 64.6523 12.5Z" fill="#A4AFC1"/>
<path d="M39.5038 14.0625C49.0309 14.0625 56.7705 21.8271 56.7705 31.3854C56.7705 35.0812 55.6059 38.5167 53.6309 41.3354C51.7122 44.075 50.6768 47.3458 50.6768 50.6937V60.9354H32.3955V52.7833L26.1809 54.6792C25.8955 54.7812 25.5913 54.8208 25.2872 54.8208C23.6018 54.8208 22.2413 53.4562 22.2413 51.7646V44.6313H17.1622C16.5934 44.6313 16.1455 44.1833 16.1455 43.6125C16.1455 43.4083 16.2059 43.225 16.308 43.0625L21.0518 35.5062C21.8247 34.275 22.2393 32.8458 22.2393 31.3896C22.2393 31.3875 22.2393 31.3854 22.2393 31.3833C22.2393 21.8271 29.9788 14.0625 39.5038 14.0625Z" fill="#EFEFEF"/>
<path d="M20.833 43.6146C20.833 43.4104 20.8934 43.2271 20.9955 43.0646L25.7393 35.5083C26.5122 34.2771 26.9268 32.8479 26.9268 31.3917C26.9268 31.3896 26.9268 31.3875 26.9268 31.3854C26.9268 22.6271 33.4309 15.3937 41.8497 14.2417C41.0809 14.1375 40.3038 14.0625 39.5059 14.0625C29.9788 14.0625 22.2393 21.8271 22.2393 31.3854V31.3917C22.2393 32.8479 21.8268 34.2771 21.0518 35.5083L16.308 43.0646C16.2059 43.2271 16.1455 43.4104 16.1455 43.6146C16.1455 44.1854 16.5913 44.6333 17.1601 44.6333H21.8476C21.2788 44.6333 20.833 44.1854 20.833 43.6146Z" fill="#D5DBE1"/>
<path d="M32.3955 54.2144V60.9374H37.083V52.7853L32.3955 54.2144Z" fill="#D5DBE1"/>
<path d="M26.9268 51.7667V44.6334H22.2393V51.7667C22.2393 53.4584 23.5997 54.8229 25.2872 54.8229C25.5913 54.8229 25.8955 54.7813 26.1809 54.6813L28.0413 54.1146C27.3643 53.5542 26.9268 52.7167 26.9268 51.7667Z" fill="#D5DBE1"/>
<path d="M50.6768 62.5001H32.3955C31.533 62.5001 30.833 61.8001 30.833 60.9376V54.896L26.6351 56.1751C26.2684 56.3064 25.7934 56.3876 25.2872 56.3876C22.7455 56.3876 20.6768 54.3147 20.6768 51.7668V46.196H17.1601C15.7393 46.196 14.583 45.0376 14.583 43.6147C14.583 43.1355 14.7205 42.6605 14.9809 42.2397L19.7288 34.6772C20.3476 33.6897 20.6747 32.5543 20.6747 31.3918C20.6768 20.973 29.1226 12.5001 39.5059 12.5001C49.8893 12.5001 58.333 20.973 58.333 31.3855C58.333 35.2835 57.1497 39.0335 54.9101 42.2314C53.1622 44.7272 52.2393 47.6543 52.2393 50.6939V60.9376C52.2393 61.8001 51.5393 62.5001 50.6768 62.5001ZM33.958 59.3751H49.1143V50.6939C49.1143 47.0085 50.233 43.4626 52.3518 40.4397C54.2184 37.771 55.208 34.6397 55.208 31.3855C55.208 22.696 48.1643 15.6251 39.5059 15.6251C30.8476 15.6251 23.8018 22.696 23.8018 31.3855C23.8018 33.1418 23.3101 34.8522 22.3768 36.3376L18.1497 43.0689H22.2393C23.1018 43.0689 23.8018 43.7689 23.8018 44.6314V51.7647C23.8018 52.5897 24.4663 53.2605 25.2872 53.2605C25.433 53.2605 25.558 53.2439 25.6559 53.2085L31.9413 51.2918C32.4143 51.148 32.9288 51.2355 33.3268 51.5314C33.7247 51.8251 33.9601 52.2918 33.9601 52.7876V59.3751H33.958Z" fill="#444BAB"/>
<path d="M38.0232 39.5833C37.9045 39.5833 37.7878 39.5708 37.6691 39.5437C36.8295 39.3499 36.3045 38.5103 36.4982 37.6708L39.6232 24.1291C39.8191 23.2853 40.6649 22.7728 41.4961 22.9562C42.3357 23.1499 42.8607 23.9895 42.667 24.8291L39.542 38.3708C39.3753 39.0958 38.7336 39.5833 38.0232 39.5833Z" fill="#444BAB"/>
<path d="M46.3544 37.4999C45.9273 37.4999 45.5023 37.327 45.1919 36.9833C44.6148 36.3416 44.6669 35.3541 45.3086 34.7749L49.2273 31.2499L45.3086 27.7249C44.6669 27.1478 44.6148 26.1604 45.1919 25.5166C45.7711 24.8749 46.7586 24.8249 47.4002 25.3999L52.6086 30.0874C52.9377 30.3854 53.1252 30.8083 53.1252 31.2499C53.1252 31.6916 52.9377 32.1145 52.6086 32.4124L47.4002 37.0999C47.1002 37.3687 46.7273 37.4999 46.3544 37.4999Z" fill="#444BAB"/>
<path d="M32.8128 37.5001C32.4399 37.5001 32.067 37.3688 31.767 37.1001L26.5587 32.4126C26.2295 32.1147 26.042 31.6918 26.042 31.2501C26.042 30.8084 26.2295 30.3855 26.5587 30.0876L31.767 25.4001C32.4087 24.823 33.3941 24.873 33.9753 25.5168C34.5524 26.1584 34.5003 27.1459 33.8587 27.7251L29.9399 31.2501L33.8587 34.7751C34.5003 35.3522 34.5524 36.3397 33.9753 36.9834C33.6649 37.3272 33.2399 37.5001 32.8128 37.5001Z" fill="#444BAB"/>
</svg>
