<svg width="75" height="75" viewBox="0 0 75 75" fill="none" xmlns="http://www.w3.org/2000/svg">
<path d="M8.68138 57.5478C8.68138 43.1374 1.2168 33.2416 1.2168 26.2978C1.2168 19.3541 5.20846 4.77075 37.1522 4.77075C69.096 4.77075 73.7835 24.3895 73.7835 32.027C73.7855 67.7916 8.68138 83.0687 8.68138 57.5478Z" fill="#F3F3F1"/>
<path d="M66.2324 6.92511L69.1787 3.97883L70.6518 5.45197L67.7056 8.39825L66.2324 6.92511Z" fill="#A4AFC1"/>
<path d="M66.5947 13.9114L68.0679 12.4383L71.0141 15.3846L69.541 16.8577L66.5947 13.9114Z" fill="#A4AFC1"/>
<path d="M58.125 5.44287L59.5981 3.96973L62.5444 6.91601L61.0713 8.38915L58.125 5.44287Z" fill="#A4AFC1"/>
<path d="M60.9375 18.2292V46.3542C60.9375 48.6562 59.0729 50.5208 56.7708 50.5208H32.8125L22.3958 60.9375V50.5208H18.2292C15.9271 50.5208 14.0625 48.6562 14.0625 46.3542V18.2292C14.0625 15.9271 15.9271 14.0625 18.2292 14.0625H56.7708C59.0729 14.0625 60.9375 15.9271 60.9375 18.2292Z" fill="#EFEFEF"/>
<path d="M27.0833 56.25V50.5208H22.9167C20.6146 50.5208 18.75 48.6562 18.75 46.3542V18.2292C18.75 15.9271 20.6146 14.0625 22.9167 14.0625H18.2292C15.9271 14.0625 14.0625 15.9271 14.0625 18.2292V46.3542C14.0625 48.6562 15.9271 50.5208 18.2292 50.5208H22.3958V60.9375L27.0833 56.25Z" fill="#D5DBE1"/>
<path d="M22.3958 62.5001C22.1937 62.5001 21.9917 62.4605 21.7979 62.3814C21.2146 62.1397 20.8333 61.5689 20.8333 60.9376V52.0835H18.2292C15.0687 52.0835 12.5 49.5147 12.5 46.3543V18.2293C12.5 15.0689 15.0687 12.5001 18.2292 12.5001H56.7708C59.9312 12.5001 62.5 15.0689 62.5 18.2293V46.3543C62.5 49.5147 59.9312 52.0835 56.7708 52.0835H33.4604L23.5021 62.0418C23.2021 62.3418 22.8021 62.5001 22.3958 62.5001ZM18.2292 15.6251C16.7937 15.6251 15.625 16.7939 15.625 18.2293V46.3543C15.625 47.7897 16.7937 48.9585 18.2292 48.9585H22.3958C23.2583 48.9585 23.9583 49.6585 23.9583 50.521V57.1647L31.7083 49.4147C32.0021 49.121 32.3979 48.9564 32.8125 48.9564H56.7708C58.2062 48.9564 59.375 47.7876 59.375 46.3522V18.2293C59.375 16.7939 58.2062 15.6251 56.7708 15.6251H18.2292Z" fill="#444BAB"/>
<path d="M30.208 39.0625C29.8538 39.0625 29.4997 38.9437 29.208 38.7L22.958 33.4916C22.6018 33.1937 22.3955 32.7541 22.3955 32.2916C22.3955 31.8291 22.6018 31.3875 22.958 31.0916L29.208 25.8833C29.8705 25.3312 30.8538 25.4166 31.4101 26.0833C31.9643 26.7458 31.8747 27.7312 31.2101 28.2833L26.3997 32.2916L31.2101 36.3C31.8726 36.8521 31.9622 37.8375 31.4101 38.5C31.0997 38.8708 30.6559 39.0625 30.208 39.0625Z" fill="#444BAB"/>
<path d="M42.708 39.0625C42.2601 39.0625 41.8163 38.8708 41.508 38.5C40.9538 37.8375 41.0434 36.8521 41.708 36.3L46.5184 32.2916L41.708 28.2833C41.0455 27.7312 40.9559 26.7458 41.508 26.0833C42.0601 25.4166 43.0455 25.3312 43.7101 25.8833L49.9601 31.0916C50.3163 31.3896 50.5226 31.8291 50.5226 32.2916C50.5226 32.7541 50.3163 33.1958 49.9601 33.4916L43.7101 38.7C43.4163 38.9437 43.0622 39.0625 42.708 39.0625Z" fill="#444BAB"/>
<path d="M34.3752 41.1457C34.2356 41.1457 34.0898 41.127 33.9461 41.0853C33.1169 40.8478 32.6356 39.9832 32.8731 39.1541L37.0398 24.5707C37.2752 23.7436 38.1252 23.2624 38.9711 23.4978C39.8002 23.7353 40.2815 24.5999 40.044 25.4291L35.8773 40.0124C35.6815 40.6999 35.0565 41.1457 34.3752 41.1457Z" fill="#444BAB"/>
</svg>
