<svg width="75" height="75" viewBox="0 0 75 75" fill="none" xmlns="http://www.w3.org/2000/svg">
<path d="M66.319 17.4522C66.319 31.8626 73.7836 41.7585 73.7836 48.7022C73.7836 55.646 69.7919 70.2293 37.8482 70.2293C5.90443 70.2293 1.21484 50.6106 1.21484 42.9731C1.21484 7.20847 66.319 -8.06861 66.319 17.4522Z" fill="#F3F3F1"/>
<path d="M38.8418 6.92102L40.3149 5.44788L43.2612 8.39416L41.7881 9.8673L38.8418 6.92102Z" fill="#A4AFC1"/>
<path d="M47.3115 15.392L48.7847 13.9188L51.7309 16.8651L50.2578 18.3382L47.3115 15.392Z" fill="#A4AFC1"/>
<path d="M46.9424 8.39502L49.8887 5.44874L51.3618 6.92188L48.4155 9.86816L46.9424 8.39502Z" fill="#A4AFC1"/>
<path d="M31.25 32.2918C36.4277 32.2918 40.625 28.0945 40.625 22.9168C40.625 17.7391 36.4277 13.5418 31.25 13.5418C26.0723 13.5418 21.875 17.7391 21.875 22.9168C21.875 28.0945 26.0723 32.2918 31.25 32.2918Z" fill="#DBDDFF"/>
<path d="M40.6253 39.0624C45.2295 39.0624 48.9587 42.7915 48.9587 47.3957V55.729H13.542V47.3957C13.542 42.7915 17.2712 39.0624 21.8753 39.0624H40.6253Z" fill="#EFEFEF"/>
<path d="M26.5625 23.4375C26.5625 19.075 29.5583 15.4396 33.5938 14.3937C32.8396 14.1979 32.0646 14.0625 31.25 14.0625C26.0729 14.0625 21.875 18.2604 21.875 23.4375C21.875 28.6146 26.0729 32.8125 31.25 32.8125C32.0646 32.8125 32.8396 32.6771 33.5938 32.4812C29.5583 31.4354 26.5625 27.8 26.5625 23.4375Z" fill="#8E94EE"/>
<path d="M26.5628 39.0624H21.8753C17.2712 39.0624 13.542 42.7915 13.542 47.3957V55.729H18.2295V47.3957C18.2295 42.7915 21.9587 39.0624 26.5628 39.0624Z" fill="#D5DBE1"/>
<path d="M31.2497 33.3335C25.5059 33.3335 20.833 28.6605 20.833 22.9168C20.833 17.173 25.5059 12.5001 31.2497 12.5001C36.9934 12.5001 41.6663 17.173 41.6663 22.9168C41.6663 28.6605 36.9934 33.3335 31.2497 33.3335ZM31.2497 15.6251C27.2288 15.6251 23.958 18.896 23.958 22.9168C23.958 26.9376 27.2288 30.2085 31.2497 30.2085C35.2705 30.2085 38.5413 26.9376 38.5413 22.9168C38.5413 18.896 35.2705 15.6251 31.2497 15.6251Z" fill="#444BAB"/>
<path d="M30.9378 57.2917H13.542C12.6795 57.2917 11.9795 56.5917 11.9795 55.7292V47.3958C11.9795 41.9396 16.4191 37.5 21.8753 37.5H40.6253C43.6503 37.5 46.4649 38.8458 48.3441 41.1896C48.8837 41.8625 48.7774 42.8479 48.1024 43.3875C47.4295 43.9292 46.4482 43.8208 45.9066 43.1479C44.6212 41.5438 42.6962 40.6271 40.6253 40.6271H21.8753C18.142 40.6271 15.1045 43.6646 15.1045 47.3979V54.1667H30.9378C31.8003 54.1667 32.5003 54.8667 32.5003 55.7292C32.5003 56.5917 31.8003 57.2917 30.9378 57.2917Z" fill="#444BAB"/>
<path d="M47.3956 62.5C47.279 62.5 47.1623 62.4875 47.0435 62.4583C46.2019 62.2646 45.679 61.4271 45.8706 60.5854L48.9956 47.0438C49.1894 46.2042 50.0269 45.6729 50.8685 45.8729C51.7102 46.0667 52.2331 46.9042 52.0415 47.7458L48.9165 61.2875C48.7519 62.0125 48.1081 62.5 47.3956 62.5Z" fill="#444BAB"/>
<path d="M55.7294 60.4167C55.3023 60.4167 54.8773 60.2417 54.5669 59.9001C53.9898 59.2563 54.0419 58.2709 54.6836 57.6917L58.6023 54.1667L54.6836 50.6417C54.0419 50.0646 53.9898 49.0771 54.5669 48.4334C55.1461 47.7917 56.1336 47.7396 56.7752 48.3167L61.9836 53.0042C62.3127 53.3021 62.5002 53.723 62.5002 54.1667C62.5002 54.6105 62.3127 55.0313 61.9836 55.3292L56.7752 60.0167C56.4752 60.2855 56.1023 60.4167 55.7294 60.4167Z" fill="#444BAB"/>
<path d="M42.1878 60.4166C41.8149 60.4166 41.442 60.2854 41.142 60.0166L35.9337 55.3291C35.6045 55.0312 35.417 54.6104 35.417 54.1666C35.417 53.7229 35.6045 53.302 35.9337 53.0041L41.142 48.3166C41.7837 47.7416 42.7712 47.7937 43.3503 48.4333C43.9274 49.077 43.8753 50.0625 43.2337 50.6416L39.3149 54.1666L43.2337 57.6916C43.8753 58.2687 43.9274 59.2562 43.3503 59.9C43.0399 60.2416 42.6149 60.4166 42.1878 60.4166Z" fill="#444BAB"/>
</svg>
