<svg width="75" height="75" viewBox="0 0 75 75" fill="none" xmlns="http://www.w3.org/2000/svg">
<path d="M57.5486 8.68138C43.1381 8.68138 33.2423 1.2168 26.2986 1.2168C19.3548 1.2168 4.77148 5.20846 4.77148 37.1522C4.77148 69.096 24.3902 73.7835 32.0277 73.7835C67.7923 73.7855 83.0694 8.68138 57.5486 8.68138Z" fill="#F3F3F1"/>
<path d="M41.2363 5.94971L42.7095 4.47657L45.6557 7.42285L44.1826 8.89598L41.2363 5.94971Z" fill="#A4AFC1"/>
<path d="M49.7061 14.4186L51.1792 12.9454L54.1255 15.8917L52.6523 17.3649L49.7061 14.4186Z" fill="#A4AFC1"/>
<path d="M49.3379 7.42169L52.2842 4.47541L53.7573 5.94855L50.811 8.89483L49.3379 7.42169Z" fill="#A4AFC1"/>
<path d="M51.042 47.3957C53.6308 47.3957 55.7295 45.297 55.7295 42.7082C55.7295 40.1194 53.6308 38.0207 51.042 38.0207C48.4532 38.0207 46.3545 40.1194 46.3545 42.7082C46.3545 45.297 48.4532 47.3957 51.042 47.3957Z" fill="#EFEFEF"/>
<path d="M56.7715 53.6459H45.3132C43.0111 53.6459 41.1465 55.5105 41.1465 57.8125V60.9375H60.9382V57.8125C60.9382 55.5105 59.0736 53.6459 56.7715 53.6459Z" fill="#EFEFEF"/>
<path d="M14.0625 18.2292V31.7708C14.0625 34.0625 15.9375 35.9375 18.2292 35.9375H29.1667L35.9375 42.1875V35.9375H40.1042C42.3958 35.9375 44.2708 34.0625 44.2708 31.7708V18.2292C44.2708 15.9375 42.3958 14.0625 40.1042 14.0625H18.2292C15.9375 14.0625 14.0625 15.9375 14.0625 18.2292Z" fill="#DBDDFF"/>
<path d="M20.8337 50.521C22.2719 50.521 23.4378 49.355 23.4378 47.9168C23.4378 46.4785 22.2719 45.3126 20.8337 45.3126C19.3954 45.3126 18.2295 46.4785 18.2295 47.9168C18.2295 49.355 19.3954 50.521 20.8337 50.521Z" fill="#EFEFEF"/>
<path d="M23.4375 55.7293H18.2292C15.9271 55.7293 14.0625 57.5939 14.0625 59.896V60.9376H27.6042V59.896C27.6042 57.5939 25.7396 55.7293 23.4375 55.7293Z" fill="#EFEFEF"/>
<path d="M51.042 42.7082C51.042 40.9769 51.9899 39.4832 53.3857 38.6707C52.6941 38.2686 51.9003 38.0207 51.042 38.0207C48.4524 38.0207 46.3545 40.1186 46.3545 42.7082C46.3545 45.2978 48.4524 47.3957 51.042 47.3957C51.9003 47.3957 52.6941 47.1478 53.3857 46.7457C51.9899 45.9332 51.042 44.4394 51.042 42.7082Z" fill="#D5DBE1"/>
<path d="M50.0007 53.6459H45.3132C43.0111 53.6459 41.1465 55.5105 41.1465 57.8125V60.9375H45.834V57.8125C45.834 55.5105 47.6986 53.6459 50.0007 53.6459Z" fill="#D5DBE1"/>
<path d="M18.75 31.7708V18.2292C18.75 15.9375 20.625 14.0625 22.9167 14.0625H18.2292C15.9375 14.0625 14.0625 15.9375 14.0625 18.2292V31.7708C14.0625 34.0625 15.9375 35.9375 18.2292 35.9375H22.9167C20.625 35.9375 18.75 34.0625 18.75 31.7708Z" fill="#8E94EE"/>
<path d="M33.8535 35.9376H29.166L35.9368 42.1876V37.8605L33.8535 35.9376Z" fill="#8E94EE"/>
<path d="M22.9167 55.7293H18.2292C15.9271 55.7293 14.0625 57.5939 14.0625 59.896V60.9376H18.75V59.896C18.75 57.5939 20.6146 55.7293 22.9167 55.7293Z" fill="#D5DBE1"/>
<path d="M51.042 48.9583C47.5962 48.9583 44.792 46.1541 44.792 42.7083C44.792 39.2625 47.5962 36.4583 51.042 36.4583C54.4878 36.4583 57.292 39.2625 57.292 42.7083C57.292 46.1541 54.4878 48.9583 51.042 48.9583ZM51.042 39.5833C49.3191 39.5833 47.917 40.9854 47.917 42.7083C47.917 44.4312 49.3191 45.8333 51.042 45.8333C52.7649 45.8333 54.167 44.4312 54.167 42.7083C54.167 40.9854 52.7649 39.5833 51.042 39.5833Z" fill="#444BAB"/>
<path d="M60.9372 62.4999C60.0747 62.4999 59.3747 61.7999 59.3747 60.9374V57.8124C59.3747 56.3769 58.2059 55.2082 56.7705 55.2082H45.3122C43.8768 55.2082 42.708 56.3769 42.708 57.8124V60.9374C42.708 61.7999 42.008 62.4999 41.1455 62.4999C40.283 62.4999 39.583 61.7999 39.583 60.9374V57.8124C39.583 54.6519 42.1518 52.0832 45.3122 52.0832H56.7705C59.9309 52.0832 62.4997 54.6519 62.4997 57.8124V60.9374C62.4997 61.7999 61.7997 62.4999 60.9372 62.4999Z" fill="#444BAB"/>
<path d="M35.9375 43.7501C35.5521 43.7501 35.1729 43.6085 34.8771 43.3355L28.5562 37.5001H18.2292C15.0687 37.5001 12.5 34.9314 12.5 31.771V18.2293C12.5 15.0689 15.0687 12.5001 18.2292 12.5001H40.1042C43.2646 12.5001 45.8333 15.0689 45.8333 18.2293V31.771C45.8333 34.9314 43.2646 37.5001 40.1042 37.5001H37.5V42.1876C37.5 42.8085 37.1313 43.3689 36.5646 43.621C36.3625 43.7064 36.15 43.7501 35.9375 43.7501ZM18.2292 15.6251C16.7937 15.6251 15.625 16.7939 15.625 18.2293V31.771C15.625 33.2064 16.7937 34.3751 18.2292 34.3751H29.1667C29.5583 34.3751 29.9375 34.523 30.2271 34.7897L34.375 38.6189V35.9376C34.375 35.0751 35.075 34.3751 35.9375 34.3751H40.1042C41.5396 34.3751 42.7083 33.2064 42.7083 31.771V18.2293C42.7083 16.7939 41.5396 15.6251 40.1042 15.6251H18.2292Z" fill="#444BAB"/>
<path d="M20.8337 52.0832C18.5357 52.0832 16.667 50.2145 16.667 47.9165C16.667 45.6186 18.5357 43.7499 20.8337 43.7499C23.1316 43.7499 25.0003 45.6186 25.0003 47.9165C25.0003 50.2145 23.1316 52.0832 20.8337 52.0832ZM20.8337 46.8749C20.2607 46.8749 19.792 47.3436 19.792 47.9165C19.792 48.4895 20.2607 48.9582 20.8337 48.9582C21.4066 48.9582 21.8753 48.4895 21.8753 47.9165C21.8753 47.3436 21.4066 46.8749 20.8337 46.8749Z" fill="#444BAB"/>
<path d="M27.6042 62.5C26.7417 62.5 26.0417 61.8 26.0417 60.9375V59.8958C26.0417 58.4604 24.8729 57.2916 23.4375 57.2916H18.2292C16.7937 57.2916 15.625 58.4604 15.625 59.8958V60.9375C15.625 61.8 14.925 62.5 14.0625 62.5C13.2 62.5 12.5 61.8 12.5 60.9375V59.8958C12.5 56.7354 15.0687 54.1666 18.2292 54.1666H23.4375C26.5979 54.1666 29.1667 56.7354 29.1667 59.8958V60.9375C29.1667 61.8 28.4667 62.5 27.6042 62.5Z" fill="#444BAB"/>
<path d="M35.9379 30.2082C35.5775 30.2082 35.215 30.0853 34.9212 29.8311C34.2671 29.2686 34.19 28.2832 34.7525 27.6269L37.0046 24.9998L34.7525 22.3707C34.19 21.7165 34.2671 20.729 34.9212 20.1665C35.5775 19.6061 36.5629 19.6811 37.1254 20.3353L40.2504 23.9811C40.7525 24.5665 40.7525 25.429 40.2504 26.0165L37.1254 29.6623C36.815 30.0228 36.3775 30.2082 35.9379 30.2082Z" fill="#444BAB"/>
<path d="M22.396 30.2082C21.9564 30.2082 21.5189 30.0228 21.2105 29.6623L18.0855 26.0165C17.5835 25.4311 17.5835 24.5686 18.0855 23.9811L21.2105 20.3353C21.7751 19.6811 22.7585 19.604 23.4147 20.1665C24.071 20.729 24.146 21.7144 23.5835 22.3707L21.3293 24.9998L23.5814 27.629C24.1439 28.2832 24.0668 29.2707 23.4126 29.8332C23.1189 30.0832 22.7564 30.2082 22.396 30.2082Z" fill="#444BAB"/>
<path d="M28.6479 31.2498C28.5917 31.2498 28.5313 31.2478 28.4729 31.2415C27.6167 31.1457 26.9979 30.3728 27.0938 29.5144L28.1354 20.1394C28.2292 19.2832 28.9896 18.6665 29.8604 18.7582C30.7167 18.854 31.3354 19.6269 31.2396 20.4853L30.1979 29.8603C30.1104 30.6582 29.4334 31.2498 28.6479 31.2498Z" fill="#444BAB"/>
</svg>
