<svg width="79" height="79" viewBox="0 0 79 79" fill="none" xmlns="http://www.w3.org/2000/svg">
<path d="M18.3829 69.8558C33.5619 69.8558 43.9855 77.7185 51.2996 77.7185C58.6136 77.7185 73.9747 73.5139 73.9747 39.8665C73.9747 6.21911 53.3097 1.27942 45.2648 1.27942C7.5928 1.27942 -8.49906 69.8558 18.3829 69.8558Z" fill="#F3F3F1"/>
<path d="M9.87467 17.6279C8.05987 17.6279 6.58301 16.1511 6.58301 14.3363C6.58301 12.5215 8.05987 11.0446 9.87467 11.0446C11.6895 11.0446 13.1663 12.5215 13.1663 14.3363C13.1663 16.1511 11.6895 17.6279 9.87467 17.6279ZM9.87467 13.2391C9.26901 13.2391 8.77745 13.7306 8.77745 14.3363C8.77745 14.9419 9.26901 15.4335 9.87467 15.4335C10.4803 15.4335 10.9719 14.9419 10.9719 14.3363C10.9719 13.7306 10.4803 13.2391 9.87467 13.2391Z" fill="#A4AFC1"/>
<path d="M64.1875 49.9236V55.4097C64.1875 56.6166 63.2 57.6041 61.9931 57.6041H17.0069C15.8 57.6041 14.8125 56.6166 14.8125 55.4097V49.9236H64.1875Z" fill="#DBDDFF"/>
<path d="M64.1875 25.7847V49.9236H14.8125V25.7847C14.8125 24.5778 15.8 23.5903 17.0069 23.5903H61.9931C63.2 23.5903 64.1875 24.5778 64.1875 25.7847Z" fill="#EFEFEF"/>
<path d="M46.5882 64.1875H32.3682C35.1112 61.4444 35.6159 57.6041 35.6159 57.6041H43.3404C43.3404 57.6041 43.867 61.4664 46.5882 64.1875Z" fill="#EFEFEF"/>
<path d="M19.75 55.4097V49.9236H14.8125V55.4097C14.8125 56.6166 15.8 57.6041 17.0069 57.6041H21.9444C20.7375 57.6041 19.75 56.6166 19.75 55.4097Z" fill="#8E94EE"/>
<path d="M21.9444 23.5903H17.0069C15.8 23.5903 14.8125 24.5778 14.8125 25.7847V49.9236H19.75V25.7847C19.75 24.5778 20.7375 23.5903 21.9444 23.5903Z" fill="#D5DBE1"/>
<path d="M35.6159 57.6041C35.6159 57.6041 35.1112 61.4444 32.3682 64.1875H37.3057C40.0487 61.4444 40.5534 57.6041 40.5534 57.6041H35.6159Z" fill="#D5DBE1"/>
<path d="M61.9934 59.2501H17.0073C14.8896 59.2501 13.167 57.5275 13.167 55.4098V25.7848C13.167 23.6672 14.8896 21.9445 17.0073 21.9445H61.9934C64.111 21.9445 65.8337 23.6672 65.8337 25.7848V55.4098C65.8337 57.5275 64.111 59.2501 61.9934 59.2501ZM17.0073 25.2362C16.7044 25.2362 16.4587 25.482 16.4587 25.7848V55.4098C16.4587 55.7126 16.7044 55.9584 17.0073 55.9584H61.9934C62.2962 55.9584 62.542 55.7126 62.542 55.4098V25.7848C62.542 25.482 62.2962 25.2362 61.9934 25.2362H17.0073Z" fill="#444BAB"/>
<path d="M64.1878 51.5694H14.8128C13.9043 51.5694 13.167 50.8321 13.167 49.9236C13.167 49.0151 13.9043 48.2778 14.8128 48.2778H64.1878C65.0963 48.2778 65.8337 49.0151 65.8337 49.9236C65.8337 50.8321 65.0963 51.5694 64.1878 51.5694Z" fill="#444BAB"/>
<path d="M46.6316 65.8333H32.3677C31.7028 65.8333 31.1015 65.4317 30.8469 64.8173C30.5924 64.2028 30.7328 63.494 31.2046 63.0244C33.489 60.74 33.9806 57.4242 33.985 57.3913C34.1035 56.4894 34.933 55.8574 35.8305 55.9737C36.7324 56.0922 37.3666 56.9195 37.2481 57.8192C37.2306 57.9487 36.9255 60.1585 35.6155 62.5416H43.3465C42.0496 60.1694 41.727 57.9596 41.7094 57.8302C41.5843 56.9304 42.212 56.0987 43.1139 55.9737C44.0202 55.8508 44.8431 56.4762 44.9704 57.3737C44.9857 57.4725 45.4795 60.5974 47.5686 62.8335C47.9965 63.1319 48.2774 63.6257 48.2774 64.1875C48.2774 65.096 47.5401 65.8333 46.6316 65.8333Z" fill="#444BAB"/>
<path d="M46 37L36 30V44L46 37Z" stroke="#444BAB" stroke-width="3" stroke-linejoin="round"/>
</svg>
