<svg width="75" height="75" viewBox="0 0 75 75" fill="none" xmlns="http://www.w3.org/2000/svg">
<path d="M8.68138 17.4522C8.68138 31.8626 1.2168 41.7585 1.2168 48.7022C1.2168 55.646 5.20846 70.2293 37.1522 70.2293C69.096 70.2293 73.7835 50.6106 73.7835 42.9731C73.7855 7.20847 8.68138 -8.06861 8.68138 17.4522Z" fill="#F3F3F1"/>
<path d="M68.1377 10.4168C66.4148 10.4168 65.0127 9.01473 65.0127 7.29181C65.0127 5.56889 66.4148 4.16681 68.1377 4.16681C69.8606 4.16681 71.2627 5.56889 71.2627 7.29181C71.2627 9.01473 69.8606 10.4168 68.1377 10.4168ZM68.1377 6.25014C67.5648 6.25014 67.096 6.71681 67.096 7.29181C67.096 7.86681 67.5648 8.33348 68.1377 8.33348C68.7106 8.33348 69.1794 7.86681 69.1794 7.29181C69.1794 6.71681 68.7106 6.25014 68.1377 6.25014Z" fill="#A4AFC1"/>
<path d="M58.8545 14.0625H26.5628C25.4128 14.0625 24.4795 14.9958 24.4795 16.1458V40.1042C24.4795 41.2542 25.4128 42.1875 26.5628 42.1875H58.8545C60.0045 42.1875 60.9378 41.2542 60.9378 40.1042V16.1458C60.9378 14.9958 60.0045 14.0625 58.8545 14.0625Z" fill="#DBDDFF"/>
<path d="M29.167 40.1042V16.1458C29.167 14.9958 30.1003 14.0625 31.2503 14.0625H26.5628C25.4128 14.0625 24.4795 14.9958 24.4795 16.1458V40.1042C24.4795 41.2542 25.4128 42.1875 26.5628 42.1875H31.2503C30.1003 42.1875 29.167 41.2542 29.167 40.1042Z" fill="#8E94EE"/>
<path d="M22.917 23.4375C25.5058 23.4375 27.6045 21.3388 27.6045 18.75C27.6045 16.1612 25.5058 14.0625 22.917 14.0625C20.3282 14.0625 18.2295 16.1612 18.2295 18.75C18.2295 21.3388 20.3282 23.4375 22.917 23.4375Z" fill="#EFEFEF"/>
<path d="M14.0625 34.8957C14.0625 31.4436 16.8604 28.6457 20.3125 28.6457H25.5208C28.9729 28.6457 31.7708 31.4436 31.7708 34.8957V42.9832C31.7708 43.7728 31.325 44.4936 30.6187 44.8457L28.7563 45.7769C28.05 46.129 27.6042 46.8519 27.6042 47.6394V58.8519C27.6042 60.0019 26.6708 60.9353 25.5208 60.9353H20.3125C19.1625 60.9353 18.2292 60.0019 18.2292 58.8519V47.6394C18.2292 46.8499 17.7833 46.129 17.0771 45.7769L15.2146 44.8457C14.5083 44.4936 14.0625 43.7707 14.0625 42.9832V34.8957Z" fill="#EFEFEF"/>
<path d="M22.917 18.75C22.917 17.0187 23.8649 15.525 25.2607 14.7125C24.5691 14.3104 23.7753 14.0625 22.917 14.0625C20.3274 14.0625 18.2295 16.1604 18.2295 18.75C18.2295 21.3396 20.3274 23.4375 22.917 23.4375C23.7753 23.4375 24.5691 23.1896 25.2607 22.7875C23.8649 21.975 22.917 20.4812 22.917 18.75Z" fill="#D5DBE1"/>
<path d="M22.9167 58.854V47.6415C22.9167 46.8519 22.4708 46.1311 21.7646 45.779L19.9021 44.8478C19.1958 44.4936 18.75 43.7728 18.75 42.9832V34.8957C18.75 31.4436 21.5479 28.6457 25 28.6457H20.3125C16.8604 28.6457 14.0625 31.4436 14.0625 34.8957V42.9832C14.0625 43.7728 14.5083 44.4936 15.2146 44.8457L17.0771 45.7769C17.7833 46.129 18.2292 46.8519 18.2292 47.6394V58.8519C18.2292 60.0019 19.1625 60.9353 20.3125 60.9353H25C23.85 60.9374 22.9167 60.004 22.9167 58.854Z" fill="#D5DBE1"/>
<path d="M22.917 25.0001C19.4712 25.0001 16.667 22.196 16.667 18.7501C16.667 15.3043 19.4712 12.5001 22.917 12.5001C26.3628 12.5001 29.167 15.3043 29.167 18.7501C29.167 22.196 26.3628 25.0001 22.917 25.0001ZM22.917 15.6251C21.1941 15.6251 19.792 17.0272 19.792 18.7501C19.792 20.473 21.1941 21.8751 22.917 21.8751C24.6399 21.8751 26.042 20.473 26.042 18.7501C26.042 17.0272 24.6399 15.6251 22.917 15.6251Z" fill="#444BAB"/>
<path d="M25.5208 62.5H20.3125C18.3021 62.5 16.6667 60.8646 16.6667 58.8541V47.6416C16.6667 47.4416 16.5563 47.2646 16.3792 47.175L14.5146 46.2437C13.2729 45.6229 12.5 44.375 12.5 42.9833V34.8958C12.5 30.5875 16.0063 27.0833 20.3125 27.0833H25.5208C29.8271 27.0833 33.3333 30.5875 33.3333 34.8958V42.9833C33.3333 44.375 32.5604 45.625 31.3167 46.2437L29.4521 47.175C29.2771 47.2666 29.1667 47.4416 29.1667 47.6416V58.8541C29.1667 60.8646 27.5313 62.5 25.5208 62.5ZM20.3125 30.2083C17.7292 30.2083 15.625 32.3104 15.625 34.8958V42.9833C15.625 43.1833 15.7354 43.3604 15.9125 43.45L17.7771 44.3812C19.0188 45.0021 19.7917 46.25 19.7917 47.6416V58.8541C19.7917 59.1416 20.025 59.375 20.3125 59.375H25.5208C25.8083 59.375 26.0417 59.1416 26.0417 58.8541V47.6416C26.0417 46.25 26.8146 45 28.0583 44.3812L29.9229 43.45C30.1 43.3604 30.2104 43.1833 30.2104 42.9833V34.8958C30.2104 32.3104 28.1063 30.2083 25.5229 30.2083H20.3125Z" fill="#444BAB"/>
<path d="M58.8538 43.7501H39.0622C38.1997 43.7501 37.4997 43.0501 37.4997 42.1876C37.4997 41.3251 38.1997 40.6251 39.0622 40.6251H58.8538C59.1413 40.6251 59.3747 40.3918 59.3747 40.1043V16.146C59.3747 15.8585 59.1413 15.6251 58.8538 15.6251H34.8955C34.033 15.6251 33.333 14.9251 33.333 14.0626C33.333 13.2001 34.033 12.5001 34.8955 12.5001H58.8538C60.8643 12.5001 62.4997 14.1355 62.4997 16.146V40.1043C62.4997 42.1147 60.8643 43.7501 58.8538 43.7501Z" fill="#444BAB"/>
<path d="M50.5212 51.5625C50.1024 51.5625 49.6858 51.3959 49.3753 51.0646L43.7503 45.0063L38.1253 51.0646C37.5378 51.698 36.5482 51.7313 35.9149 51.1459C35.2837 50.5584 35.2482 49.5688 35.8337 48.9355L42.6045 41.6438C43.1982 41.0084 44.3003 41.0084 44.8962 41.6438L51.667 48.9355C52.2524 49.5688 52.217 50.5563 51.5857 51.1459C51.2837 51.425 50.9024 51.5625 50.5212 51.5625Z" fill="#444BAB"/>
<path d="M52.6039 33.3334C52.2435 33.3334 51.881 33.2105 51.5873 32.9563C50.9331 32.3938 50.856 31.4084 51.4185 30.7521L53.6706 28.1229L51.4185 25.4938C50.856 24.8396 50.9331 23.8521 51.5873 23.2896C52.2414 22.7313 53.2289 22.8042 53.7914 23.4584L56.9164 27.1042C57.4185 27.6896 57.4185 28.5521 56.9164 29.1396L53.7914 32.7855C53.481 33.148 53.0435 33.3334 52.6039 33.3334Z" fill="#444BAB"/>
<path d="M39.063 33.3333C38.6234 33.3333 38.1859 33.1479 37.8775 32.7875L34.7525 29.1416C34.2505 28.5562 34.2505 27.6937 34.7525 27.1062L37.8775 23.4604C38.4421 22.8062 39.4255 22.7312 40.0817 23.2916C40.7359 23.8541 40.813 24.8395 40.2505 25.4958L37.9963 28.125L40.2484 30.7541C40.8109 31.4083 40.7338 32.3958 40.0796 32.9583C39.7859 33.2083 39.4234 33.3333 39.063 33.3333Z" fill="#444BAB"/>
<path d="M44.2732 36.4582C44.1545 36.4582 44.0378 36.4457 43.9191 36.4186C43.0795 36.2249 42.5545 35.3853 42.7482 34.5457L45.8732 21.0041C46.067 20.1603 46.9149 19.6457 47.7461 19.8311C48.5857 20.0249 49.1107 20.8645 48.917 21.7041L45.792 35.2457C45.6253 35.9707 44.9836 36.4582 44.2732 36.4582Z" fill="#444BAB"/>
</svg>
