<svg width="75" height="75" viewBox="0 0 75 75" fill="none" xmlns="http://www.w3.org/2000/svg">
<path d="M17.4517 8.68138C31.8621 8.68138 41.7579 1.2168 48.7017 1.2168C55.6454 1.2168 70.2288 5.20846 70.2288 37.1522C70.2288 69.096 50.61 73.7835 42.9725 73.7835C7.20792 73.7855 -8.06916 8.68138 17.4517 8.68138Z" fill="#F3F3F1"/>
<path d="M14.0625 28.4375C12.3396 28.4375 10.9375 27.0354 10.9375 25.3125C10.9375 23.5896 12.3396 22.1875 14.0625 22.1875C15.7854 22.1875 17.1875 23.5896 17.1875 25.3125C17.1875 27.0354 15.7854 28.4375 14.0625 28.4375ZM14.0625 24.2708C13.4896 24.2708 13.0208 24.7375 13.0208 25.3125C13.0208 25.8875 13.4896 26.3542 14.0625 26.3542C14.6354 26.3542 15.1042 25.8875 15.1042 25.3125C15.1042 24.7375 14.6354 24.2708 14.0625 24.2708Z" fill="#A4AFC1"/>
<path d="M14.0625 39.0624V56.7707H19.7917L23.9583 41.3832C23.9583 41.3832 20.9208 39.0624 14.0625 39.0624Z" fill="#DBDDFF"/>
<path d="M60.9375 52.6043C60.9375 52.6043 45.8333 60.9376 39.5833 60.9376C34.6042 60.9376 24.3542 56.3126 20.375 54.4376L23.4792 43.1459L43.5417 47.2501C45.4792 47.6459 46.875 49.3543 46.875 51.3334V52.2293C46.8333 52.2501 46.8125 52.2501 46.7708 52.2709H46.875V52.2293C49.875 51.3126 53.0208 50.0001 55.7292 50.0001C59.8958 50.0001 60.9375 52.6043 60.9375 52.6043Z" fill="#EFEFEF"/>
<path d="M46.8747 52.2291V52.2708H46.7705C46.8122 52.25 46.833 52.25 46.8747 52.2291Z" fill="#EFEFEF"/>
<path d="M46.8747 52.2291V52.2708H46.7705C46.8122 52.25 46.833 52.25 46.8747 52.2291Z" fill="#D5DBE1"/>
<path d="M14.0625 39.0624V56.7707H18.75V39.479C17.4458 39.2353 15.9021 39.0624 14.0625 39.0624Z" fill="#8E94EE"/>
<path d="M51.5628 51.3334V52.2292C53.6774 51.5834 55.8607 50.7501 57.9149 50.3084C57.3003 50.1292 56.5962 50.0001 55.7295 50.0001C54.4045 50.0001 52.9753 50.3167 51.5107 50.7438C51.5399 50.9376 51.5628 51.1334 51.5628 51.3334Z" fill="#D5DBE1"/>
<path d="M51.5622 52.2707V52.2291C51.5205 52.2499 51.4997 52.2499 51.458 52.2707H51.5622Z" fill="#D5DBE1"/>
<path d="M25.0625 54.4376L27.9167 44.0543L23.4792 43.1459L20.375 54.4376C24.3542 56.3126 34.6042 60.9376 39.5833 60.9376C40.2375 60.9376 41.0062 60.8293 41.8271 60.6647C36.4708 59.6584 28.4708 56.0439 25.0625 54.4376Z" fill="#D5DBE1"/>
<path d="M51.5622 52.2291V52.2707H51.458C51.4997 52.2499 51.5205 52.2499 51.5622 52.2291Z" fill="#D5DBE1"/>
<path d="M19.7917 58.3333H14.0625C13.2 58.3333 12.5 57.6333 12.5 56.7708V39.0625C12.5 38.2 13.2 37.5 14.0625 37.5C21.3667 37.5 24.7667 40.0354 24.9063 40.1437C25.4104 40.5292 25.6333 41.1813 25.4667 41.7938L21.3 57.1813C21.1167 57.8604 20.4979 58.3333 19.7917 58.3333ZM15.625 55.2083H18.5958L22.1333 42.1438C21.0437 41.6292 18.9146 40.8625 15.625 40.6708V55.2083Z" fill="#444BAB"/>
<path d="M39.5832 62.4999C34.5728 62.4999 24.9811 58.3332 19.7103 55.852C18.929 55.4832 18.5936 54.552 18.9623 53.7707C19.3311 52.9915 20.2623 52.6561 21.0415 53.0228C29.6082 57.0603 36.3665 59.3749 39.5832 59.3749C43.8082 59.3749 53.3998 54.8103 58.4269 52.177C57.8478 51.8457 56.9853 51.5624 55.729 51.5624C53.8998 51.5624 51.6373 52.3165 49.4519 53.0436C47.029 53.852 44.5248 54.6874 42.1873 54.6874C37.7977 54.6874 32.0019 52.5999 31.7582 52.5103C30.9457 52.2145 30.5269 51.3186 30.8228 50.5082C31.1207 49.6957 32.0165 49.2811 32.8248 49.5728C32.879 49.5936 38.3498 51.5624 42.1873 51.5624C44.0165 51.5624 46.279 50.8082 48.4644 50.0811C50.8873 49.2728 53.3915 48.4374 55.729 48.4374C60.8936 48.4374 62.329 51.877 62.3873 52.0249C62.6811 52.7561 62.3811 53.5915 61.6915 53.9728C61.0623 54.3207 46.1602 62.4999 39.5832 62.4999Z" fill="#444BAB"/>
<path d="M46.8751 53.8334C46.0126 53.8334 45.3126 53.1334 45.3126 52.2709V51.3333C45.3126 50.1021 44.4355 49.0271 43.2292 48.7813L23.1647 44.6771C22.3209 44.5042 21.7751 43.6792 21.948 42.8333C22.1209 41.9875 22.948 41.4479 23.7917 41.6167L43.8563 45.7208C46.5105 46.2625 48.4376 48.625 48.4376 51.3354V52.2729C48.4376 53.1333 47.7376 53.8334 46.8751 53.8334Z" fill="#444BAB"/>
<path d="M45.3142 34.3752C45.1955 34.3752 45.0788 34.3627 44.9601 34.3356C44.1205 34.1418 43.5955 33.3022 43.7892 32.4627L46.9142 18.921C47.1101 18.0772 47.9601 17.5627 48.7872 17.7481C49.6267 17.9418 50.1517 18.7814 49.958 19.621L46.833 33.1627C46.6663 33.8877 46.0247 34.3752 45.3142 34.3752Z" fill="#444BAB"/>
<path d="M53.6464 32.2917C53.2193 32.2917 52.7943 32.1188 52.4839 31.7751C51.9068 31.1334 51.9589 30.1459 52.6006 29.5667L56.5193 26.0417L52.6006 22.5167C51.9589 21.9397 51.9068 20.9522 52.4839 20.3084C53.0631 19.6667 54.0506 19.6167 54.6922 20.1917L59.9006 24.8792C60.2297 25.1772 60.4172 25.6001 60.4172 26.0417C60.4172 26.4834 60.2297 26.9063 59.9006 27.2042L54.6922 31.8917C54.3922 32.1605 54.0193 32.2917 53.6464 32.2917Z" fill="#444BAB"/>
<path d="M40.1038 32.2916C39.7309 32.2916 39.358 32.1603 39.058 31.8916L33.8497 27.2041C33.5205 26.9062 33.333 26.4833 33.333 26.0416C33.333 25.5999 33.5205 25.177 33.8497 24.8791L39.058 20.1916C39.7018 19.6145 40.6872 19.6645 41.2663 20.3083C41.8434 20.9499 41.7913 21.9374 41.1497 22.5166L37.2309 26.0416L41.1497 29.5666C41.7913 30.1437 41.8434 31.1312 41.2663 31.7749C40.9559 32.1187 40.5309 32.2916 40.1038 32.2916Z" fill="#444BAB"/>
</svg>
