<svg width="75" height="75" viewBox="0 0 75 75" fill="none" xmlns="http://www.w3.org/2000/svg">
<path d="M17.4517 8.68138C31.8621 8.68138 41.7579 1.2168 48.7017 1.2168C55.6454 1.2168 70.2288 5.20846 70.2288 37.1522C70.2288 69.096 50.61 73.7835 42.9725 73.7835C7.20792 73.7855 -8.06916 8.68138 17.4517 8.68138Z" fill="#F3F3F1"/>
<path d="M65.9346 6.98602L68.8809 4.03974L70.354 5.51288L67.4077 8.45916L65.9346 6.98602Z" fill="#A4AFC1"/>
<path d="M66.3018 13.9844L67.7749 12.5112L70.7212 15.4575L69.248 16.9307L66.3018 13.9844Z" fill="#A4AFC1"/>
<path d="M57.832 5.51349L59.3052 4.04035L62.2514 6.98663L60.7783 8.45977L57.832 5.51349Z" fill="#A4AFC1"/>
<path d="M60.9375 20.3125V23.4375H14.0625V20.3125C14.0625 18.0209 15.9375 16.1459 18.2292 16.1459H56.7708C59.0625 16.1459 60.9375 18.0209 60.9375 20.3125Z" fill="#DBDDFF"/>
<path d="M60.9375 23.4375V54.6875C60.9375 56.9792 59.0625 58.8542 56.7708 58.8542H18.2292C15.9375 58.8542 14.0625 56.9792 14.0625 54.6875V23.4375H60.9375Z" fill="#EFEFEF"/>
<path d="M22.9167 16.1459H18.2292C15.9375 16.1459 14.0625 18.0209 14.0625 20.3125V23.4375H18.75V20.3125C18.75 18.0209 20.625 16.1459 22.9167 16.1459Z" fill="#8E94EE"/>
<path d="M18.75 54.6875V23.4375H14.0625V54.6875C14.0625 56.9792 15.9375 58.8542 18.2292 58.8542H22.9167C20.625 58.8542 18.75 56.9792 18.75 54.6875Z" fill="#D5DBE1"/>
<path d="M23.9583 32.2917H20.3125C19.45 32.2917 18.75 31.5917 18.75 30.7292C18.75 29.8667 19.45 29.1667 20.3125 29.1667H23.9583C24.8208 29.1667 25.5208 29.8667 25.5208 30.7292C25.5208 31.5917 24.8208 32.2917 23.9583 32.2917Z" fill="#444BAB"/>
<path d="M23.9583 54.1668H20.3125C19.45 54.1668 18.75 53.4668 18.75 52.6043C18.75 51.7418 19.45 51.0418 20.3125 51.0418H23.9583C24.8208 51.0418 25.5208 51.7418 25.5208 52.6043C25.5208 53.4668 24.8208 54.1668 23.9583 54.1668Z" fill="#444BAB"/>
<path d="M35.9372 37.4999H22.3955C21.533 37.4999 20.833 36.7999 20.833 35.9374C20.833 35.0749 21.533 34.3749 22.3955 34.3749H35.9372C36.7997 34.3749 37.4997 35.0749 37.4997 35.9374C37.4997 36.7999 36.7997 37.4999 35.9372 37.4999Z" fill="#444BAB"/>
<path d="M54.6878 42.7084H24.4795C23.617 42.7084 22.917 42.0084 22.917 41.1459C22.917 40.2834 23.617 39.5834 24.4795 39.5834H54.6878C55.5503 39.5834 56.2503 40.2834 56.2503 41.1459C56.2503 42.0084 55.5503 42.7084 54.6878 42.7084Z" fill="#444BAB"/>
<path d="M35.9372 48.9583H22.3955C21.533 48.9583 20.833 48.2583 20.833 47.3958C20.833 46.5333 21.533 45.8333 22.3955 45.8333H35.9372C36.7997 45.8333 37.4997 46.5333 37.4997 47.3958C37.4997 48.2583 36.7997 48.9583 35.9372 48.9583Z" fill="#444BAB"/>
<path d="M56.7708 60.4165H18.2292C15.0687 60.4165 12.5 57.8478 12.5 54.6874V20.3124C12.5 17.1519 15.0687 14.5832 18.2292 14.5832H56.7708C59.9312 14.5832 62.5 17.1519 62.5 20.3124V54.6874C62.5 57.8478 59.9312 60.4165 56.7708 60.4165ZM18.2292 17.7082C16.7937 17.7082 15.625 18.8769 15.625 20.3124V54.6874C15.625 56.1228 16.7937 57.2915 18.2292 57.2915H56.7708C58.2062 57.2915 59.375 56.1228 59.375 54.6874V20.3124C59.375 18.8769 58.2062 17.7082 56.7708 17.7082H18.2292Z" fill="#444BAB"/>
<path d="M60.9375 25.0001H14.0625C13.2 25.0001 12.5 24.3001 12.5 23.4376C12.5 22.5751 13.2 21.8751 14.0625 21.8751H60.9375C61.8 21.8751 62.5 22.5751 62.5 23.4376C62.5 24.3001 61.8 25.0001 60.9375 25.0001Z" fill="#444BAB"/>
</svg>
